<mxfile host="app.diagrams.net" agent="Mozilla/5.0 (Windows NT 10.0; Win64; x64) AppleWebKit/537.36 (KHTML, like Gecko) Chrome/134.0.0.0 Safari/537.36" version="26.0.16">
  <diagram name="Page-1" id="tpigDDPErss5bawbf0nz">
    <mxGraphModel dx="2334" dy="856" grid="1" gridSize="10" guides="1" tooltips="1" connect="1" arrows="1" fold="1" page="1" pageScale="1" pageWidth="850" pageHeight="1100" math="0" shadow="0">
      <root>
        <mxCell id="0" />
        <mxCell id="1" parent="0" />
        <mxCell id="s-_OTzcvdS2PQ7Hh8csy-1" value="Nhân viên bán hàng" style="shape=umlActor;verticalLabelPosition=bottom;verticalAlign=top;html=1;outlineConnect=0;" vertex="1" parent="1">
          <mxGeometry x="-280" y="220" width="30" height="60" as="geometry" />
        </mxCell>
        <mxCell id="s-_OTzcvdS2PQ7Hh8csy-5" value="" style="endArrow=none;html=1;rounded=0;entryX=0;entryY=0.5;entryDx=0;entryDy=0;" edge="1" parent="1" source="s-_OTzcvdS2PQ7Hh8csy-1" target="s-_OTzcvdS2PQ7Hh8csy-4">
          <mxGeometry width="50" height="50" relative="1" as="geometry">
            <mxPoint x="390" y="310" as="sourcePoint" />
            <mxPoint x="440" y="260" as="targetPoint" />
          </mxGeometry>
        </mxCell>
        <mxCell id="s-_OTzcvdS2PQ7Hh8csy-8" value="" style="endArrow=none;html=1;rounded=0;entryX=0;entryY=0.5;entryDx=0;entryDy=0;" edge="1" parent="1" target="s-_OTzcvdS2PQ7Hh8csy-7" source="s-_OTzcvdS2PQ7Hh8csy-1">
          <mxGeometry width="50" height="50" relative="1" as="geometry">
            <mxPoint x="70" y="168" as="sourcePoint" />
            <mxPoint x="420" y="180" as="targetPoint" />
          </mxGeometry>
        </mxCell>
        <mxCell id="s-_OTzcvdS2PQ7Hh8csy-10" value="" style="endArrow=none;html=1;rounded=0;entryX=0.079;entryY=0.29;entryDx=0;entryDy=0;entryPerimeter=0;" edge="1" parent="1" target="s-_OTzcvdS2PQ7Hh8csy-9" source="s-_OTzcvdS2PQ7Hh8csy-1">
          <mxGeometry width="50" height="50" relative="1" as="geometry">
            <mxPoint x="90" y="283.35" as="sourcePoint" />
            <mxPoint x="252.71544663164957" y="260.00387070067643" as="targetPoint" />
          </mxGeometry>
        </mxCell>
        <mxCell id="s-_OTzcvdS2PQ7Hh8csy-12" value="" style="endArrow=none;html=1;rounded=0;entryX=0;entryY=0.5;entryDx=0;entryDy=0;" edge="1" parent="1" target="s-_OTzcvdS2PQ7Hh8csy-11" source="s-_OTzcvdS2PQ7Hh8csy-1">
          <mxGeometry width="50" height="50" relative="1" as="geometry">
            <mxPoint x="100" y="248" as="sourcePoint" />
            <mxPoint x="340" y="245" as="targetPoint" />
          </mxGeometry>
        </mxCell>
        <mxCell id="s-_OTzcvdS2PQ7Hh8csy-14" value="" style="swimlane;startSize=0;" vertex="1" parent="1">
          <mxGeometry x="-50" y="30" width="650" height="1000" as="geometry" />
        </mxCell>
        <mxCell id="s-_OTzcvdS2PQ7Hh8csy-19" value="Xem báo cáo, thống kê" style="ellipse;whiteSpace=wrap;html=1;" vertex="1" parent="s-_OTzcvdS2PQ7Hh8csy-14">
          <mxGeometry x="160" y="480" width="140" height="70" as="geometry" />
        </mxCell>
        <mxCell id="s-_OTzcvdS2PQ7Hh8csy-4" value="Đăng nhập" style="ellipse;whiteSpace=wrap;html=1;" vertex="1" parent="s-_OTzcvdS2PQ7Hh8csy-14">
          <mxGeometry x="30" y="30" width="140" height="70" as="geometry" />
        </mxCell>
        <mxCell id="s-_OTzcvdS2PQ7Hh8csy-11" value="Cập nhật tài khoản" style="ellipse;whiteSpace=wrap;html=1;" vertex="1" parent="s-_OTzcvdS2PQ7Hh8csy-14">
          <mxGeometry x="100" y="120" width="140" height="70" as="geometry" />
        </mxCell>
        <mxCell id="s-_OTzcvdS2PQ7Hh8csy-65" style="edgeStyle=orthogonalEdgeStyle;rounded=0;orthogonalLoop=1;jettySize=auto;html=1;" edge="1" parent="s-_OTzcvdS2PQ7Hh8csy-14" source="s-_OTzcvdS2PQ7Hh8csy-9" target="s-_OTzcvdS2PQ7Hh8csy-7">
          <mxGeometry relative="1" as="geometry" />
        </mxCell>
        <mxCell id="s-_OTzcvdS2PQ7Hh8csy-9" value="Tạo đơn hàng" style="ellipse;whiteSpace=wrap;html=1;" vertex="1" parent="s-_OTzcvdS2PQ7Hh8csy-14">
          <mxGeometry x="160" y="290" width="140" height="70" as="geometry" />
        </mxCell>
        <mxCell id="s-_OTzcvdS2PQ7Hh8csy-7" value="Tìm kiếm&lt;span style=&quot;background-color: transparent; color: light-dark(rgb(0, 0, 0), rgb(255, 255, 255));&quot;&gt;&amp;nbsp;và xem sản phẩm&lt;/span&gt;" style="ellipse;whiteSpace=wrap;html=1;" vertex="1" parent="s-_OTzcvdS2PQ7Hh8csy-14">
          <mxGeometry x="160" y="200" width="140" height="70" as="geometry" />
        </mxCell>
        <mxCell id="s-_OTzcvdS2PQ7Hh8csy-36" value="Xem thông tin khách hàng" style="ellipse;whiteSpace=wrap;html=1;" vertex="1" parent="s-_OTzcvdS2PQ7Hh8csy-14">
          <mxGeometry x="160" y="380" width="140" height="70" as="geometry" />
        </mxCell>
        <mxCell id="s-_OTzcvdS2PQ7Hh8csy-39" value="Tạo khách hàng mới" style="ellipse;whiteSpace=wrap;html=1;" vertex="1" parent="s-_OTzcvdS2PQ7Hh8csy-14">
          <mxGeometry x="320" y="800" width="140" height="70" as="geometry" />
        </mxCell>
        <mxCell id="s-_OTzcvdS2PQ7Hh8csy-29" value="Quản lý tài khoản" style="ellipse;whiteSpace=wrap;html=1;" vertex="1" parent="s-_OTzcvdS2PQ7Hh8csy-14">
          <mxGeometry x="130" y="560" width="140" height="70" as="geometry" />
        </mxCell>
        <mxCell id="s-_OTzcvdS2PQ7Hh8csy-69" style="edgeStyle=orthogonalEdgeStyle;rounded=0;orthogonalLoop=1;jettySize=auto;html=1;exitX=0.5;exitY=1;exitDx=0;exitDy=0;" edge="1" parent="s-_OTzcvdS2PQ7Hh8csy-14" source="s-_OTzcvdS2PQ7Hh8csy-29" target="s-_OTzcvdS2PQ7Hh8csy-29">
          <mxGeometry relative="1" as="geometry" />
        </mxCell>
        <mxCell id="s-_OTzcvdS2PQ7Hh8csy-51" value="Quản lý chương trình khuyến mãi" style="ellipse;whiteSpace=wrap;html=1;" vertex="1" parent="s-_OTzcvdS2PQ7Hh8csy-14">
          <mxGeometry x="130" y="650" width="140" height="70" as="geometry" />
        </mxCell>
        <mxCell id="s-_OTzcvdS2PQ7Hh8csy-55" value="Nhập hàng" style="ellipse;whiteSpace=wrap;html=1;" vertex="1" parent="s-_OTzcvdS2PQ7Hh8csy-14">
          <mxGeometry x="100" y="730" width="140" height="70" as="geometry" />
        </mxCell>
        <mxCell id="s-_OTzcvdS2PQ7Hh8csy-32" value="Quản lý sản phẩm danh mục" style="ellipse;whiteSpace=wrap;html=1;rotation=0;" vertex="1" parent="s-_OTzcvdS2PQ7Hh8csy-14">
          <mxGeometry x="60" y="810" width="140" height="80" as="geometry" />
        </mxCell>
        <mxCell id="s-_OTzcvdS2PQ7Hh8csy-57" value="Quản lý nhà cung cấp" style="ellipse;whiteSpace=wrap;html=1;" vertex="1" parent="s-_OTzcvdS2PQ7Hh8csy-14">
          <mxGeometry y="890" width="140" height="70" as="geometry" />
        </mxCell>
        <mxCell id="s-_OTzcvdS2PQ7Hh8csy-20" value="" style="endArrow=none;html=1;rounded=0;entryX=0;entryY=0;entryDx=0;entryDy=0;" edge="1" parent="1" source="s-_OTzcvdS2PQ7Hh8csy-1" target="s-_OTzcvdS2PQ7Hh8csy-19">
          <mxGeometry width="50" height="50" relative="1" as="geometry">
            <mxPoint x="100" y="268" as="sourcePoint" />
            <mxPoint x="350" y="660" as="targetPoint" />
          </mxGeometry>
        </mxCell>
        <mxCell id="s-_OTzcvdS2PQ7Hh8csy-23" value="Quản trị viên" style="shape=umlActor;verticalLabelPosition=bottom;verticalAlign=top;html=1;outlineConnect=0;" vertex="1" parent="1">
          <mxGeometry x="-280" y="535" width="30" height="60" as="geometry" />
        </mxCell>
        <mxCell id="s-_OTzcvdS2PQ7Hh8csy-26" value="" style="endArrow=none;html=1;rounded=0;exitX=0;exitY=0.5;exitDx=0;exitDy=0;" edge="1" parent="1" source="s-_OTzcvdS2PQ7Hh8csy-4" target="s-_OTzcvdS2PQ7Hh8csy-23">
          <mxGeometry width="50" height="50" relative="1" as="geometry">
            <mxPoint x="100" y="252" as="sourcePoint" />
            <mxPoint x="700" y="230" as="targetPoint" />
          </mxGeometry>
        </mxCell>
        <mxCell id="s-_OTzcvdS2PQ7Hh8csy-28" value="" style="endArrow=none;html=1;rounded=0;exitX=0;exitY=0.5;exitDx=0;exitDy=0;" edge="1" parent="1" source="s-_OTzcvdS2PQ7Hh8csy-11" target="s-_OTzcvdS2PQ7Hh8csy-23">
          <mxGeometry width="50" height="50" relative="1" as="geometry">
            <mxPoint x="493" y="146" as="sourcePoint" />
            <mxPoint x="690" y="240" as="targetPoint" />
          </mxGeometry>
        </mxCell>
        <mxCell id="s-_OTzcvdS2PQ7Hh8csy-30" value="" style="endArrow=none;html=1;rounded=0;exitX=0.015;exitY=0.305;exitDx=0;exitDy=0;exitPerimeter=0;" edge="1" parent="1" source="s-_OTzcvdS2PQ7Hh8csy-29" target="s-_OTzcvdS2PQ7Hh8csy-23">
          <mxGeometry width="50" height="50" relative="1" as="geometry">
            <mxPoint x="360" y="285" as="sourcePoint" />
            <mxPoint x="700" y="230" as="targetPoint" />
          </mxGeometry>
        </mxCell>
        <mxCell id="s-_OTzcvdS2PQ7Hh8csy-31" value="" style="endArrow=none;html=1;rounded=0;exitX=0;exitY=0.5;exitDx=0;exitDy=0;" edge="1" parent="1" source="s-_OTzcvdS2PQ7Hh8csy-7" target="s-_OTzcvdS2PQ7Hh8csy-23">
          <mxGeometry width="50" height="50" relative="1" as="geometry">
            <mxPoint x="489" y="325" as="sourcePoint" />
            <mxPoint x="700" y="230" as="targetPoint" />
          </mxGeometry>
        </mxCell>
        <mxCell id="s-_OTzcvdS2PQ7Hh8csy-33" value="" style="endArrow=none;html=1;rounded=0;" edge="1" parent="1" source="s-_OTzcvdS2PQ7Hh8csy-32" target="s-_OTzcvdS2PQ7Hh8csy-23">
          <mxGeometry width="50" height="50" relative="1" as="geometry">
            <mxPoint x="490" y="510" as="sourcePoint" />
            <mxPoint x="700" y="230" as="targetPoint" />
          </mxGeometry>
        </mxCell>
        <mxCell id="s-_OTzcvdS2PQ7Hh8csy-35" value="" style="endArrow=none;html=1;rounded=0;exitX=0;exitY=0;exitDx=0;exitDy=0;" edge="1" parent="1" source="s-_OTzcvdS2PQ7Hh8csy-19" target="s-_OTzcvdS2PQ7Hh8csy-23">
          <mxGeometry width="50" height="50" relative="1" as="geometry">
            <mxPoint x="484" y="492" as="sourcePoint" />
            <mxPoint x="700" y="230" as="targetPoint" />
          </mxGeometry>
        </mxCell>
        <mxCell id="s-_OTzcvdS2PQ7Hh8csy-37" value="" style="endArrow=none;html=1;rounded=0;exitX=0;exitY=0.5;exitDx=0;exitDy=0;" edge="1" parent="1" source="s-_OTzcvdS2PQ7Hh8csy-36" target="s-_OTzcvdS2PQ7Hh8csy-23">
          <mxGeometry width="50" height="50" relative="1" as="geometry">
            <mxPoint x="479" y="750" as="sourcePoint" />
            <mxPoint x="700" y="230" as="targetPoint" />
          </mxGeometry>
        </mxCell>
        <mxCell id="s-_OTzcvdS2PQ7Hh8csy-38" value="&amp;lt;&amp;lt;System&amp;gt;&amp;gt;" style="shape=umlActor;verticalLabelPosition=bottom;verticalAlign=top;html=1;" vertex="1" parent="1">
          <mxGeometry x="750" y="650" width="30" height="50" as="geometry" />
        </mxCell>
        <mxCell id="s-_OTzcvdS2PQ7Hh8csy-41" value="" style="endArrow=none;html=1;rounded=0;entryX=1;entryY=0;entryDx=0;entryDy=0;" edge="1" parent="1" source="s-_OTzcvdS2PQ7Hh8csy-38" target="s-_OTzcvdS2PQ7Hh8csy-39">
          <mxGeometry width="50" height="50" relative="1" as="geometry">
            <mxPoint x="100" y="405" as="sourcePoint" />
            <mxPoint x="375" y="671" as="targetPoint" />
          </mxGeometry>
        </mxCell>
        <mxCell id="s-_OTzcvdS2PQ7Hh8csy-42" value="" style="endArrow=none;html=1;rounded=0;exitX=0;exitY=0.5;exitDx=0;exitDy=0;" edge="1" parent="1" source="s-_OTzcvdS2PQ7Hh8csy-36" target="s-_OTzcvdS2PQ7Hh8csy-1">
          <mxGeometry width="50" height="50" relative="1" as="geometry">
            <mxPoint x="495" y="765" as="sourcePoint" />
            <mxPoint x="750" y="401" as="targetPoint" />
          </mxGeometry>
        </mxCell>
        <mxCell id="s-_OTzcvdS2PQ7Hh8csy-52" value="" style="endArrow=none;html=1;rounded=0;" edge="1" parent="1" source="s-_OTzcvdS2PQ7Hh8csy-51" target="s-_OTzcvdS2PQ7Hh8csy-23">
          <mxGeometry width="50" height="50" relative="1" as="geometry">
            <mxPoint x="495" y="875" as="sourcePoint" />
            <mxPoint x="750" y="407" as="targetPoint" />
          </mxGeometry>
        </mxCell>
        <mxCell id="s-_OTzcvdS2PQ7Hh8csy-56" value="" style="endArrow=none;html=1;rounded=0;exitX=0;exitY=0;exitDx=0;exitDy=0;" edge="1" parent="1" source="s-_OTzcvdS2PQ7Hh8csy-55" target="s-_OTzcvdS2PQ7Hh8csy-23">
          <mxGeometry width="50" height="50" relative="1" as="geometry">
            <mxPoint x="489" y="682" as="sourcePoint" />
            <mxPoint x="760" y="630" as="targetPoint" />
          </mxGeometry>
        </mxCell>
        <mxCell id="s-_OTzcvdS2PQ7Hh8csy-58" value="" style="endArrow=none;html=1;rounded=0;" edge="1" parent="1" source="s-_OTzcvdS2PQ7Hh8csy-57" target="s-_OTzcvdS2PQ7Hh8csy-23">
          <mxGeometry width="50" height="50" relative="1" as="geometry">
            <mxPoint x="489" y="762" as="sourcePoint" />
            <mxPoint x="780" y="640" as="targetPoint" />
          </mxGeometry>
        </mxCell>
      </root>
    </mxGraphModel>
  </diagram>
</mxfile>
